<svg xmlns="http://www.w3.org/2000/svg" viewBox="0 0 960 610.32"><defs><style>.cls-1{fill:#fff;}.cls-2,.cls-7{fill:#4fd1d9;}.cls-2{opacity:0.28;}.cls-3,.cls-4,.cls-5,.cls-8,.cls-9{fill:none;stroke:#4fd1d9;stroke-width:2px;}.cls-3,.cls-4,.cls-5{stroke-linecap:round;}.cls-3,.cls-4,.cls-5,.cls-8{stroke-miterlimit:10;}.cls-4{stroke-dasharray:7.94 7.94;}.cls-5{stroke-dasharray:7.95 7.95;}.cls-6{opacity:0.48;}.cls-9{stroke-linejoin:round;}.cls-10{fill:#414042;}</style></defs><title>404</title><g id="browser"><rect class="cls-1" width="960" height="610.32"/></g><g id="design"><path class="cls-2" d="M652.37,311.32a167,167,0,0,1-23.78,86.16h-288a167.79,167.79,0,1,1,311.77-86.16Z" transform="translate(0 -29.68)"/><path class="cls-1" d="M397.68,190.42H306.54a6.57,6.57,0,0,1-6.57-6.57h0a6.57,6.57,0,0,1,6.57-6.57h91.14a6.57,6.57,0,0,1,6.57,6.57h0A6.57,6.57,0,0,1,397.68,190.42Z" transform="translate(0 -29.68)"/><rect class="cls-1" x="502.52" y="126.49" width="104.28" height="13.14" rx="6.57" ry="6.57"/><path class="cls-1" d="M681.33,265.73H590.19a6.57,6.57,0,0,1-6.57-6.57h0a6.57,6.57,0,0,1,6.57-6.57h91.14a6.57,6.57,0,0,1,6.57,6.57h0A6.57,6.57,0,0,1,681.33,265.73Z" transform="translate(0 -29.68)"/><path class="cls-1" d="M719.43,286.63H628.29a6.57,6.57,0,0,1-6.57-6.57h0a6.57,6.57,0,0,1,6.57-6.57h91.14a6.57,6.57,0,0,1,6.57,6.57h0A6.57,6.57,0,0,1,719.43,286.63Z" transform="translate(0 -29.68)"/><path class="cls-1" d="M403.79,251.89H312.64a6.57,6.57,0,0,1-6.57-6.57h0a6.57,6.57,0,0,1,6.57-6.57h91.14a6.57,6.57,0,0,1,6.57,6.57h0A6.57,6.57,0,0,1,403.79,251.89Z" transform="translate(0 -29.68)"/><path class="cls-3" d="M645.38,394q-.92,1.78-1.87,3.53h-4" transform="translate(0 -29.68)"/><line class="cls-4" x1="631.56" y1="367.8" x2="333.64" y2="367.8"/><path class="cls-3" d="M329.67,397.48h-4q-1-1.76-1.87-3.53" transform="translate(0 -29.68)"/><path class="cls-5" d="M320.32,386.8a180.75,180.75,0,1,1,326.84,3.59" transform="translate(0 -29.68)"/><line class="cls-3" x1="289.97" y1="159.89" x2="280.98" y2="168.89"/><line class="cls-3" x1="280.98" y1="159.89" x2="289.97" y2="168.89"/><line class="cls-3" x1="214.8" y1="343.46" x2="205.8" y2="352.46"/><line class="cls-3" x1="205.8" y1="343.46" x2="214.8" y2="352.46"/><line class="cls-3" x1="449.19" y1="138.1" x2="440.19" y2="147.1"/><line class="cls-3" x1="440.19" y1="138.1" x2="449.19" y2="147.1"/><line class="cls-3" x1="722.49" y1="314.15" x2="713.5" y2="323.15"/><line class="cls-3" x1="713.5" y1="314.15" x2="722.49" y2="323.15"/><line class="cls-3" x1="711.22" y1="159.89" x2="702.22" y2="168.89"/><line class="cls-3" x1="702.22" y1="159.89" x2="711.22" y2="168.89"/><line class="cls-3" x1="628" y1="105.01" x2="619.01" y2="114.01"/><line class="cls-3" x1="619.01" y1="105.01" x2="628" y2="114.01"/><circle class="cls-3" cx="245.21" cy="228.56" r="5.65"/><circle class="cls-3" cx="272.83" cy="336.82" r="5.65" transform="translate(-160.28 289.73) rotate(-48.69)"/><circle class="cls-3" cx="784.79" cy="353.61" r="5.65"/><circle class="cls-3" cx="562.75" cy="157.86" r="5.65"/><circle class="cls-3" cx="421.59" cy="59.94" r="5.65"/><circle class="cls-3" cx="697.95" cy="251.95" r="5.65"/><g class="cls-6"><path class="cls-7" d="M562.75,324.54a4.74,4.74,0,0,1-1.34,3.43,5.18,5.18,0,0,1-3.89,1.38H555v7.22q0,5.9-6,5.9-5.1,0-5.1-6.38v-6.74H521.41q-7.79,0-7.79-4.21a7.5,7.5,0,0,1,1.28-3.79q1.27-2.1,2.08-3.31l17.72-27.44a16,16,0,0,1,4.5-4.45,10.16,10.16,0,0,1,5.44-1.44q5,0,7.65,2.53t2.68,8.42v24.07h2.55a5.06,5.06,0,0,1,3.89,1.44A4.8,4.8,0,0,1,562.75,324.54Zm-18.93-4.81V294.94l-15.57,24.79Z" transform="translate(0 -29.68)"/><path class="cls-7" d="M438.75,324.54a4.74,4.74,0,0,1-1.34,3.43,5.18,5.18,0,0,1-3.89,1.38H431v7.22q0,5.9-6,5.9-5.1,0-5.1-6.38v-6.74H397.4q-7.79,0-7.79-4.21a7.5,7.5,0,0,1,1.28-3.79q1.27-2.1,2.08-3.31l17.72-27.44a16,16,0,0,1,4.5-4.45,10.16,10.16,0,0,1,5.44-1.44q5,0,7.65,2.53t2.68,8.42v24.07h2.55a5.06,5.06,0,0,1,3.89,1.44A4.8,4.8,0,0,1,438.75,324.54Zm-18.93-4.81V294.94l-15.57,24.79Z" transform="translate(0 -29.68)"/><path class="cls-7" d="M499.08,307.84h-3.57a23.8,23.8,0,0,0-2.69-6.5l2.52-2.52a2.14,2.14,0,0,0,0-3l-5.2-5.2a2.14,2.14,0,0,0-3,0l-2.52,2.52a23.8,23.8,0,0,0-6.5-2.69v-3.57a2.14,2.14,0,0,0-2.14-2.14h-7.35a2.14,2.14,0,0,0-2.14,2.14v3.57a23.8,23.8,0,0,0-6.5,2.69l-2.52-2.52a2.14,2.14,0,0,0-3,0l-5.2,5.2a2.14,2.14,0,0,0,0,3l2.52,2.52a23.8,23.8,0,0,0-2.69,6.5h-3.57a2.14,2.14,0,0,0-2.14,2.14v7.35a2.14,2.14,0,0,0,2.14,2.14H449a23.8,23.8,0,0,0,2.69,6.5l-2.52,2.52a2.14,2.14,0,0,0,0,3l5.2,5.2a2.14,2.14,0,0,0,3,0L460,334.2a23.8,23.8,0,0,0,6.5,2.69v3.57a2.14,2.14,0,0,0,2.14,2.14H476a2.14,2.14,0,0,0,2.14-2.14v-3.57a23.8,23.8,0,0,0,6.5-2.69l2.52,2.52a2.14,2.14,0,0,0,3,0l5.2-5.2a2.14,2.14,0,0,0,0-3L492.82,326a23.8,23.8,0,0,0,2.69-6.5h3.57a2.14,2.14,0,0,0,2.14-2.14V310A2.14,2.14,0,0,0,499.08,307.84Zm-26.8,20.31a14.5,14.5,0,1,1,14.5-14.5A14.5,14.5,0,0,1,472.28,328.15Z" transform="translate(0 -29.68)"/><path class="cls-7" d="M523.44,290.19l-1.87-.17a12.52,12.52,0,0,0-1.11-3.53l1.44-1.2a1.13,1.13,0,0,0,.14-1.59l-2.48-3a1.13,1.13,0,0,0-1.59-.14l-1.44,1.2a12.52,12.52,0,0,0-3.28-1.71l.17-1.87a1.13,1.13,0,0,0-1-1.22l-3.85-.34a1.13,1.13,0,0,0-1.22,1l-.17,1.87a12.52,12.52,0,0,0-3.53,1.11l-1.2-1.44a1.13,1.13,0,0,0-1.59-.14l-3,2.48a1.13,1.13,0,0,0-.14,1.59l1.2,1.44a12.52,12.52,0,0,0-1.71,3.28l-1.87-.17a1.13,1.13,0,0,0-1.22,1l-.34,3.85a1.13,1.13,0,0,0,1,1.22l1.87.17a12.52,12.52,0,0,0,1.11,3.53l-1.44,1.2a1.13,1.13,0,0,0-.14,1.59l2.48,3a1.13,1.13,0,0,0,1.59.14l1.44-1.2A12.52,12.52,0,0,0,505,303.9l-.17,1.87a1.13,1.13,0,0,0,1,1.22l3.85.34a1.13,1.13,0,0,0,1.22-1l.17-1.87a12.52,12.52,0,0,0,3.53-1.11l1.2,1.44a1.13,1.13,0,0,0,1.59.14l3-2.48a1.13,1.13,0,0,0,.14-1.59l-1.2-1.44a12.52,12.52,0,0,0,1.71-3.28l1.87.17a1.13,1.13,0,0,0,1.22-1l.34-3.85A1.13,1.13,0,0,0,523.44,290.19Zm-15,9.4a7.62,7.62,0,1,1,8.27-6.92A7.62,7.62,0,0,1,508.45,299.59Z" transform="translate(0 -29.68)"/></g><path class="cls-8" d="M423.73,321.09V296.3l-15.57,24.79Z" transform="translate(0 -29.68)"/><path class="cls-8" d="M476.19,329.38a14.5,14.5,0,1,1,14.5-14.5A14.5,14.5,0,0,1,476.19,329.38Z" transform="translate(0 -29.68)"/><path class="cls-8" d="M527.34,291.55l-1.87-.17a12.52,12.52,0,0,0-1.11-3.53l1.44-1.2a1.13,1.13,0,0,0,.14-1.59l-2.48-3a1.13,1.13,0,0,0-1.59-.14l-1.44,1.2a12.52,12.52,0,0,0-3.28-1.71l.17-1.87a1.13,1.13,0,0,0-1-1.22l-3.85-.34a1.13,1.13,0,0,0-1.22,1l-.17,1.87a12.52,12.52,0,0,0-3.53,1.11l-1.2-1.44a1.13,1.13,0,0,0-1.59-.14l-3,2.48a1.13,1.13,0,0,0-.14,1.59l1.2,1.44a12.52,12.52,0,0,0-1.71,3.28l-1.87-.17a1.13,1.13,0,0,0-1.22,1l-.34,3.85a1.13,1.13,0,0,0,1,1.22l1.87.17a12.52,12.52,0,0,0,1.11,3.53l-1.44,1.2a1.13,1.13,0,0,0-.14,1.59l2.48,3a1.13,1.13,0,0,0,1.59.14l1.44-1.2a12.52,12.52,0,0,0,3.28,1.71l-.17,1.87a1.13,1.13,0,0,0,1,1.22l3.85.34a1.13,1.13,0,0,0,1.22-1l.17-1.87a12.52,12.52,0,0,0,3.53-1.11l1.2,1.44a1.13,1.13,0,0,0,1.59.14l3-2.48a1.13,1.13,0,0,0,.14-1.59l-1.2-1.44a12.52,12.52,0,0,0,1.71-3.28l1.87.17a1.13,1.13,0,0,0,1.22-1l.34-3.85A1.13,1.13,0,0,0,527.34,291.55Zm-15,9.4a7.62,7.62,0,1,1,8.27-6.92A7.63,7.63,0,0,1,512.35,301Z" transform="translate(0 -29.68)"/><path class="cls-8" d="M601.61,343.84H564.85c-5,0-6.07-2-6.07-5.9v-7.22h2.55a5.18,5.18,0,0,0,3.89-1.38,4.74,4.74,0,0,0,1.34-3.43,4.8,4.8,0,0,0-1.34-3.37,5.06,5.06,0,0,0-3.89-1.44h-2.55V297q0-5.89-2.68-8.42t-7.65-2.53a10.17,10.17,0,0,0-5.44,1.44,16,16,0,0,0-4.5,4.45l-17.72,27.44q-.81,1.2-2.08,3.31a7.5,7.5,0,0,0-1.28,3.79q0,4.21,7.79,4.21h22.42v6.74c0,4.25-.52,6.38-7.44,6.38H484.55c-2,0-2.55-1-2.55-2.14v-3.57a23.81,23.81,0,0,0,6.5-2.69L491,338a2.14,2.14,0,0,0,3,0l5.2-5.2a2.14,2.14,0,0,0,0-3l-2.52-2.52a23.8,23.8,0,0,0,2.69-6.5H503a2.14,2.14,0,0,0,2.14-2.14v-7.35a2.14,2.14,0,0,0-2.14-2.14h-3.57a23.81,23.81,0,0,0-2.69-6.5l2.52-2.52a2.14,2.14,0,0,0,0-3l-5.2-5.2a2.14,2.14,0,0,0-3,0l-2.52,2.52a23.81,23.81,0,0,0-6.5-2.69v-3.57a2.14,2.14,0,0,0-2.14-2.14h-7.35a2.14,2.14,0,0,0-2.14,2.14v3.57a23.8,23.8,0,0,0-6.5,2.69l-2.52-2.52a2.14,2.14,0,0,0-3,0l-5.2,5.2a2.14,2.14,0,0,0,0,3l2.52,2.52a23.8,23.8,0,0,0-2.69,6.5h-3.57a2.14,2.14,0,0,0-2.14,2.14v7.35a2.14,2.14,0,0,0,2.14,2.14H453a23.8,23.8,0,0,0,2.69,6.5l-2.52,2.52a2.14,2.14,0,0,0,0,3l5.2,5.2a2.14,2.14,0,0,0,3,0l2.52-2.52a23.8,23.8,0,0,0,6.5,2.69v3.57c0,1.72-1.89,2.14-4.08,2.14H440.94c-5,0-6.07-2-6.07-5.9v-7.22h2.55a5.18,5.18,0,0,0,3.89-1.38,4.74,4.74,0,0,0,1.34-3.43,4.8,4.8,0,0,0-1.34-3.37,5.06,5.06,0,0,0-3.89-1.44h-2.55V297q0-5.89-2.68-8.42t-7.65-2.53a10.16,10.16,0,0,0-5.44,1.44,16,16,0,0,0-4.5,4.45l-17.72,27.44q-.81,1.2-2.08,3.31a7.5,7.5,0,0,0-1.28,3.79q0,4.21,7.79,4.21h22.42v6.74c0,4.25-.52,6.38-7.44,6.38H367.57m180.07-22.74V296.3l-15.57,24.79Z" transform="translate(0 -29.68)"/><path class="cls-8" d="M358.21,180.65H611a12.54,12.54,0,0,1,12.54,12.54V367.8a0,0,0,0,1,0,0H345.67a0,0,0,0,1,0,0V193.19A12.54,12.54,0,0,1,358.21,180.65Z"/><rect class="cls-8" x="358.21" y="192.32" width="252.75" height="163.61"/><rect class="cls-8" x="311.81" y="367.8" width="345.55" height="12.16"/><path class="cls-9" d="M642.05,417.43H327.13a15.46,15.46,0,0,1-9.5-3.26l-5.81-4.53H657.36l-5.81,4.53A15.46,15.46,0,0,1,642.05,417.43Z" transform="translate(0 -29.68)"/></g><g id="text"><g id="text-2" data-name="text"><path class="cls-10" d="M247.18,487.24c0,19.9-15.8,35-37,35s-36.87-15-36.87-35,15.8-34.62,36.87-34.62S247.18,467.44,247.18,487.24Zm-56.08.1c0,11.51,8.88,20.38,19.31,20.38s18.92-8.88,18.92-20.38-8.39-20.19-18.92-20.19S191.09,475.83,191.09,487.34Z" transform="translate(0 -29.68)"/><path class="cls-10" d="M309.31,495.14c0,16.19-11.51,26.92-28.68,26.92s-28.77-10.73-28.77-26.92,11.51-26.82,28.77-26.82S309.31,479,309.31,495.14Zm-40.48.2c0,8.19,4.78,13.65,11.8,13.65s11.7-5.46,11.7-13.65-4.78-13.65-11.7-13.65S268.83,487.24,268.83,495.34Z" transform="translate(0 -29.68)"/><path class="cls-10" d="M376.12,495.44c0,16-9.56,26.63-24.29,26.63-6.83,0-12.39-2.73-16.09-7.61V540.4H318.87V468.91h16.87v6.92a19.15,19.15,0,0,1,15.7-7.51C366.27,468.32,376.12,479.15,376.12,495.44Zm-17-.49c0-8-4.78-13.65-11.8-13.65-6.83,0-11.61,5.66-11.61,13.65,0,8.19,4.78,13.75,11.61,13.75C354.37,508.7,359.15,503,359.15,494.95Z" transform="translate(0 -29.68)"/><path class="cls-10" d="M425.67,474.08,419.92,485c-6.34-3.41-12.19-5.27-16.58-5.27-3,0-5.17,1.17-5.17,3.61,0,7.22,27.7,3.71,27.6,22,0,10.83-9.46,16.78-22.14,16.78-8.78,0-17.26-2.54-23.6-7.41L385.39,504c5.95,4.19,12.78,6.53,18.63,6.53,3.32,0,5.75-1.17,5.75-3.61,0-7.71-27.21-3.71-27.11-22.14,0-10.83,9.17-16.68,21.36-16.68A43,43,0,0,1,425.67,474.08Z" transform="translate(0 -29.68)"/><path class="cls-10" d="M449.47,514.07a8.14,8.14,0,1,1-8.19-8.1A7.83,7.83,0,0,1,449.47,514.07Zm-2.83-16H436.5L433.57,471V453.59h16V471Z" transform="translate(0 -29.68)"/><path class="cls-10" d="M493.71,484.94l-3.92-12.88-4,12.88h-2.88l-5.47-16.51h3l4,13.42,4-13.4,2.74,0,4,13.42,4-13.42h2.88l-5.52,16.51Z" transform="translate(0 -29.68)"/><path class="cls-10" d="M513.62,479.7h-9.48a3.82,3.82,0,0,0,3.89,3.14,4.88,4.88,0,0,0,3.54-1.46l1.44,1.53a6.83,6.83,0,0,1-5.19,2.12,6.37,6.37,0,1,1-.07-12.74C512.15,472.29,513.95,475.17,513.62,479.7Zm-2.36-2a3.22,3.22,0,0,0-3.49-3.26,3.57,3.57,0,0,0-3.68,3.26Z" transform="translate(0 -29.68)"/><path class="cls-10" d="M532.87,474.35l-1.49,1.75a4.74,4.74,0,0,0-3.59-1.42,4,4,0,0,0,0,8,4.68,4.68,0,0,0,3.7-1.51L533,482.7a6.38,6.38,0,0,1-5.33,2.34,6.37,6.37,0,0,1,0-12.74A6.62,6.62,0,0,1,532.87,474.35Z" transform="translate(0 -29.68)"/><path class="cls-10" d="M542.85,483.41a5.09,5.09,0,0,1-4.15,1.65c-2.71,0-4.41-1.68-4.41-3.89s1.72-3.75,4.74-3.77h3.8V477c0-1.58-1-2.52-3-2.52a6.62,6.62,0,0,0-3.7,1.27L535,473.87a9.2,9.2,0,0,1,5.4-1.58c3.23,0,5,1.65,5.07,4.41l0,8.23h-2.67Zm0-2.88v-1.16h-3.4c-1.77,0-2.59.47-2.59,1.67s.92,1.86,2.43,1.86C541.19,482.91,542.68,481.9,542.82,480.53Z" transform="translate(0 -29.68)"/><path class="cls-10" d="M561.15,477.13v7.81h-2.71v-7.05a2.8,2.8,0,0,0-3-3,3.52,3.52,0,0,0-3.56,3.42v6.68h-2.71V472.39h2.71v2.41a4.74,4.74,0,0,1,4.62-2.5C559.41,472.29,561.15,474.13,561.15,477.13Z" transform="translate(0 -29.68)"/><path class="cls-10" d="M566.79,469.94a2.08,2.08,0,0,1-.42,1.23l-1.34,2h-1.39l.9-2a1.48,1.48,0,1,1,2.26-1.23Z" transform="translate(0 -29.68)"/><path class="cls-10" d="M576.93,484.14a6,6,0,0,1-3.09.92,3.31,3.31,0,0,1-3.52-3.66v-6.51h-1.77v-2h1.77v-3.44H573v3.44h3.7v2H573v6c0,1.3.5,1.7,1.34,1.7a4.38,4.38,0,0,0,1.89-.54Z" transform="translate(0 -29.68)"/><path class="cls-10" d="M593.66,473.54l-1,2a7.38,7.38,0,0,0-3.61-1.11c-1.06,0-1.84.35-1.84,1.25,0,2.31,6.68,1.06,6.65,5.61,0,2.57-2.29,3.73-4.81,3.73a7.76,7.76,0,0,1-5-1.75l1-1.93a6.84,6.84,0,0,0,4.2,1.56c1.16,0,2.05-.4,2.05-1.34,0-2.57-6.6-1.13-6.58-5.66,0-2.55,2.22-3.63,4.62-3.63A7.93,7.93,0,0,1,593.66,473.54Z" transform="translate(0 -29.68)"/><path class="cls-10" d="M607.65,479.7h-9.48a3.82,3.82,0,0,0,3.89,3.14,4.88,4.88,0,0,0,3.54-1.46l1.44,1.53a6.83,6.83,0,0,1-5.19,2.12,6.37,6.37,0,1,1-.07-12.74C606.18,472.29,608,475.17,607.65,479.7Zm-2.36-2a3.22,3.22,0,0,0-3.49-3.26,3.57,3.57,0,0,0-3.68,3.26Z" transform="translate(0 -29.68)"/><path class="cls-10" d="M621.52,479.7H612a3.82,3.82,0,0,0,3.89,3.14,4.88,4.88,0,0,0,3.54-1.46l1.44,1.53a6.83,6.83,0,0,1-5.19,2.12,6.37,6.37,0,1,1-.07-12.74C620.06,472.29,621.85,475.17,621.52,479.7Zm-2.36-2a3.22,3.22,0,0,0-3.49-3.26,3.57,3.57,0,0,0-3.68,3.26Z" transform="translate(0 -29.68)"/><path class="cls-10" d="M645.32,477.13v7.81h-2.71v-7.05a2.79,2.79,0,0,0-3-3.07c-2.15.07-3.44,1.72-3.44,3.92v6.2h-2.71v-7.05a2.77,2.77,0,0,0-2.95-3.07,3.59,3.59,0,0,0-3.49,3.92v6.2h-2.69V472.39H627v2.43a4.64,4.64,0,0,1,4.55-2.52,4.21,4.21,0,0,1,4.36,3,4.61,4.61,0,0,1,4.77-3C643.6,472.29,645.32,474.13,645.32,477.13Z" transform="translate(0 -29.68)"/><path class="cls-10" d="M662.14,484.14a6,6,0,0,1-3.09.92,3.31,3.31,0,0,1-3.52-3.66v-6.51h-1.77v-2h1.77v-3.44h2.69v3.44h3.7v2h-3.7v6c0,1.3.5,1.7,1.34,1.7a4.38,4.38,0,0,0,1.89-.54Z" transform="translate(0 -29.68)"/><path class="cls-10" d="M676.41,478.66a6.15,6.15,0,0,1-6.53,6.37c-3.89,0-6.56-2.59-6.56-6.37s2.67-6.37,6.56-6.37S676.41,474.87,676.41,478.66Zm-10.38,0a3.84,3.84,0,1,0,3.85-4.06A3.78,3.78,0,0,0,666,478.69Z" transform="translate(0 -29.68)"/><path class="cls-10" d="M685.85,471.63a4.11,4.11,0,0,1,4.32-4.32,4.75,4.75,0,0,1,2.34.57l-.09,2.36a5.55,5.55,0,0,0-2.17-.54,1.51,1.51,0,0,0-1.7,1.67v1.46h3.28v2h-3.28v10.07h-2.69V474.87H684.2v-2h1.65Zm7.34-2.83a1.58,1.58,0,1,1,1.58,1.63A1.57,1.57,0,0,1,693.19,468.8Zm2.92,3.59v12.55h-2.69V472.39Z" transform="translate(0 -29.68)"/><path class="cls-10" d="M712.13,477.13v7.81h-2.71v-7.05a2.8,2.8,0,0,0-3-3,3.52,3.52,0,0,0-3.56,3.42v6.68h-2.71V472.39h2.71v2.41a4.74,4.74,0,0,1,4.62-2.5C710.38,472.29,712.13,474.13,712.13,477.13Z" transform="translate(0 -29.68)"/><path class="cls-10" d="M727.72,484.94H725v-2.15a4.86,4.86,0,0,1-4.41,2.26c-3.61,0-6-2.62-6-6.44s2.43-6.35,6-6.35a5,5,0,0,1,4.46,2.29v-7.12h2.71ZM725,478.71a3.82,3.82,0,0,0-3.85-4.13,3.87,3.87,0,0,0-3.87,4.13,3.86,3.86,0,1,0,7.71,0Z" transform="translate(0 -29.68)"/><path class="cls-10" d="M745,484.14a6,6,0,0,1-3.09.92,3.31,3.31,0,0,1-3.52-3.66v-6.51h-1.77v-2h1.77v-3.44h2.69v3.44h3.7v2h-3.7v6c0,1.3.5,1.7,1.34,1.7a4.38,4.38,0,0,0,1.89-.54Z" transform="translate(0 -29.68)"/><path class="cls-10" d="M759.69,477.13v7.81H757v-7.05a2.8,2.8,0,0,0-3-3,3.59,3.59,0,0,0-3.59,3.92v6.18h-2.71v-17.5h2.71v7.41a4.75,4.75,0,0,1,4.65-2.55C757.94,472.29,759.69,474.13,759.69,477.13Z" transform="translate(0 -29.68)"/><path class="cls-10" d="M774.36,479.7h-9.48a3.82,3.82,0,0,0,3.89,3.14,4.88,4.88,0,0,0,3.54-1.46l1.44,1.53a6.83,6.83,0,0,1-5.19,2.12,6.37,6.37,0,1,1-.07-12.74C772.9,472.29,774.69,475.17,774.36,479.7Zm-2.36-2a3.22,3.22,0,0,0-3.49-3.26,3.57,3.57,0,0,0-3.68,3.26Z" transform="translate(0 -29.68)"/><path class="cls-10" d="M492.62,507c0,3.75-2.36,6.32-5.94,6.32a4.93,4.93,0,0,1-4.44-2.26v6.75h-2.71V500.7h2.71v2.17a4.91,4.91,0,0,1,4.39-2.26C490.19,500.6,492.62,503.2,492.62,507Zm-2.74-.09a3.83,3.83,0,1,0-3.82,4.1A3.81,3.81,0,0,0,489.88,506.93Z" transform="translate(0 -29.68)"/><path class="cls-10" d="M503,511.71a5.09,5.09,0,0,1-4.15,1.65c-2.71,0-4.41-1.67-4.41-3.89s1.72-3.75,4.74-3.77H503v-.38c0-1.58-1-2.52-3-2.52a6.62,6.62,0,0,0-3.7,1.27l-1.11-1.89a9.19,9.19,0,0,1,5.4-1.58c3.23,0,5,1.65,5.07,4.41l0,8.23H503Zm0-2.88v-1.16h-3.4c-1.77,0-2.59.47-2.59,1.67s.92,1.86,2.43,1.86C501.33,511.22,502.81,510.21,503,508.84Z" transform="translate(0 -29.68)"/><path class="cls-10" d="M520.6,512c0,3.61-2.57,5.87-6.51,5.87a9.13,9.13,0,0,1-5.21-1.65l1.16-2a6.34,6.34,0,0,0,3.94,1.37c2.38,0,3.94-1.39,3.94-3.56v-1.58a4.6,4.6,0,0,1-4.15,2.12c-3.4,0-5.66-2.45-5.66-6.06s2.24-5.95,5.57-6a4.68,4.68,0,0,1,4.25,2.12v-2h2.69Zm-2.69-5.38a3.57,3.57,0,0,0-3.61-3.84,3.87,3.87,0,1,0,3.61,3.84Z" transform="translate(0 -29.68)"/><path class="cls-10" d="M535.41,508h-9.48a3.82,3.82,0,0,0,3.89,3.14,4.88,4.88,0,0,0,3.54-1.46l1.44,1.53a6.83,6.83,0,0,1-5.19,2.12,6.37,6.37,0,1,1-.07-12.74C534,500.6,535.74,503.48,535.41,508Zm-2.36-2a3.22,3.22,0,0,0-3.49-3.25,3.57,3.57,0,0,0-3.68,3.25Z" transform="translate(0 -29.68)"/><path class="cls-10" d="M549.26,515a4.19,4.19,0,0,1-4.08,3,4.25,4.25,0,0,1-2.9-1.06l1.16-2.1a2.65,2.65,0,0,0,1.63.61A2,2,0,0,0,547,514l.42-.94-5.19-12.36H545l3.75,9.51,3.49-9.51H555Z" transform="translate(0 -29.68)"/><path class="cls-10" d="M568.3,507a6.15,6.15,0,0,1-6.53,6.37c-3.89,0-6.56-2.6-6.56-6.37s2.67-6.37,6.56-6.37S568.3,503.17,568.3,507Zm-10.38,0a3.84,3.84,0,1,0,3.85-4.06A3.78,3.78,0,0,0,557.92,507Z" transform="translate(0 -29.68)"/><path class="cls-10" d="M582.52,513.25h-2.71v-2.45a4.63,4.63,0,0,1-4.48,2.55c-2.88,0-4.6-1.84-4.6-4.84V500.7h2.71v7.05a2.76,2.76,0,0,0,2.93,3c2.17,0,3.44-1.72,3.44-3.92V500.7h2.71Z" transform="translate(0 -29.68)"/><path class="cls-10" d="M588.54,498.24a2.09,2.09,0,0,1-.42,1.23l-1.34,2h-1.39l.9-2a1.48,1.48,0,1,1,2.26-1.23Z" transform="translate(0 -29.68)"/><path class="cls-10" d="M594.3,503.2a4.56,4.56,0,0,1,4.34-2.59v2.59a3.8,3.8,0,0,0-4.34,3.49v6.56h-2.71V500.7h2.71Z" transform="translate(0 -29.68)"/><path class="cls-10" d="M611.92,508h-9.48a3.82,3.82,0,0,0,3.89,3.14,4.88,4.88,0,0,0,3.54-1.46l1.44,1.53a6.83,6.83,0,0,1-5.19,2.12A6.37,6.37,0,1,1,606,500.6C610.45,500.6,612.25,503.48,611.92,508Zm-2.36-2a3.22,3.22,0,0,0-3.49-3.25,3.57,3.57,0,0,0-3.68,3.25Z" transform="translate(0 -29.68)"/><path class="cls-10" d="M621,513.25v-17.5h2.71v17.5Z" transform="translate(0 -29.68)"/><path class="cls-10" d="M639.71,507a6.15,6.15,0,0,1-6.53,6.37c-3.89,0-6.56-2.6-6.56-6.37s2.67-6.37,6.56-6.37S639.71,503.17,639.71,507Zm-10.38,0a3.84,3.84,0,1,0,3.85-4.06A3.78,3.78,0,0,0,629.33,507Z" transform="translate(0 -29.68)"/><path class="cls-10" d="M654.45,507a6.15,6.15,0,0,1-6.53,6.37c-3.89,0-6.56-2.6-6.56-6.37s2.67-6.37,6.56-6.37S654.45,503.17,654.45,507Zm-10.38,0a3.84,3.84,0,1,0,3.85-4.06A3.78,3.78,0,0,0,644.07,507Z" transform="translate(0 -29.68)"/><path class="cls-10" d="M660.11,509.73v3.51H657.4v-17.5h2.71v10.57l5.54-5.61h3.11l-4.65,4.86,5,7.69h-3.21l-3.68-5.76Z" transform="translate(0 -29.68)"/><path class="cls-10" d="M674.24,497.11a1.58,1.58,0,1,1-1.58-1.65A1.56,1.56,0,0,1,674.24,497.11Zm-2.92,16.14V500.7H674v12.55Z" transform="translate(0 -29.68)"/><path class="cls-10" d="M690,505.44v7.81h-2.71v-7.05a2.8,2.8,0,0,0-3-3,3.52,3.52,0,0,0-3.56,3.42v6.68H678V500.7h2.71v2.41a4.74,4.74,0,0,1,4.62-2.5C688.28,500.6,690,502.44,690,505.44Z" transform="translate(0 -29.68)"/><path class="cls-10" d="M705,512c0,3.61-2.57,5.87-6.51,5.87a9.13,9.13,0,0,1-5.21-1.65l1.16-2a6.34,6.34,0,0,0,3.94,1.37c2.38,0,3.94-1.39,3.94-3.56v-1.58a4.6,4.6,0,0,1-4.15,2.12c-3.4,0-5.66-2.45-5.66-6.06s2.24-5.95,5.57-6a4.68,4.68,0,0,1,4.25,2.12v-2H705Zm-2.69-5.38a3.57,3.57,0,0,0-3.61-3.84,3.87,3.87,0,1,0,3.61,3.84Z" transform="translate(0 -29.68)"/><path class="cls-10" d="M718.05,499.68v1.49h3.28v2h-3.28v10h-2.69v-10h-1.65v-2h1.65v-1.23a4.11,4.11,0,0,1,4.32-4.32,4.79,4.79,0,0,1,2.83.87l-1,2.08a3,3,0,0,0-1.72-.59A1.57,1.57,0,0,0,718.05,499.68Z" transform="translate(0 -29.68)"/><path class="cls-10" d="M734.61,507a6.15,6.15,0,0,1-6.53,6.37c-3.89,0-6.56-2.6-6.56-6.37s2.67-6.37,6.56-6.37S734.61,503.17,734.61,507Zm-10.38,0a3.84,3.84,0,1,0,3.85-4.06A3.78,3.78,0,0,0,724.23,507Z" transform="translate(0 -29.68)"/><path class="cls-10" d="M740.16,503.2a4.56,4.56,0,0,1,4.34-2.59v2.59a3.8,3.8,0,0,0-4.34,3.49v6.56h-2.71V500.7h2.71Z" transform="translate(0 -29.68)"/><path class="cls-10" d="M748.79,511.88a1.49,1.49,0,1,1-3,0,1.49,1.49,0,1,1,3,0Z" transform="translate(0 -29.68)"/><path class="cls-10" d="M480,539.16v4.14h6.36v1.39H480V549h7.35v1.37h-8.79v-12.6h8.55v1.39Z" transform="translate(0 -29.68)"/><path class="cls-10" d="M491.47,543a3.55,3.55,0,0,1,3.4-2.16v1.42a3.15,3.15,0,0,0-3.4,3.08v5h-1.4v-9.49h1.4Z" transform="translate(0 -29.68)"/><path class="cls-10" d="M498.17,543a3.55,3.55,0,0,1,3.4-2.16v1.42a3.15,3.15,0,0,0-3.4,3.08v5h-1.4v-9.49h1.4Z" transform="translate(0 -29.68)"/><path class="cls-10" d="M512.12,545.62a4.81,4.81,0,1,1-4.81-4.77A4.6,4.6,0,0,1,512.12,545.62Zm-8.21,0a3.4,3.4,0,1,0,3.4-3.51A3.32,3.32,0,0,0,503.91,545.64Z" transform="translate(0 -29.68)"/><path class="cls-10" d="M516,543a3.55,3.55,0,0,1,3.4-2.16v1.42a3.15,3.15,0,0,0-3.4,3.08v5h-1.4v-9.49H516Z" transform="translate(0 -29.68)"/><path class="cls-10" d="M533.61,542.26l-.77,1a4,4,0,0,0-2.83-1.1,3.5,3.5,0,0,0,0,7,3.71,3.71,0,0,0,2.93-1.22l.81.86a4.76,4.76,0,0,1-3.8,1.64,4.79,4.79,0,0,1,0-9.58A4.85,4.85,0,0,1,533.61,542.26Z" transform="translate(0 -29.68)"/><path class="cls-10" d="M544.52,545.62a4.81,4.81,0,1,1-4.81-4.77A4.6,4.6,0,0,1,544.52,545.62Zm-8.21,0a3.4,3.4,0,1,0,3.4-3.51A3.32,3.32,0,0,0,536.31,545.64Z" transform="translate(0 -29.68)"/><path class="cls-10" d="M555.7,550.38h-1.4v-2a4,4,0,0,1-3.69,2.11,4.82,4.82,0,0,1,0-9.63,4,4,0,0,1,3.71,2.12V537h1.4Zm-1.4-4.72a3.43,3.43,0,1,0-3.42,3.53A3.37,3.37,0,0,0,554.29,545.66Z" transform="translate(0 -29.68)"/><path class="cls-10" d="M567.38,546.18h-7.74a3.32,3.32,0,0,0,3.44,3A4,4,0,0,0,566,548l.77.83a5,5,0,0,1-3.82,1.58,4.79,4.79,0,0,1,0-9.58C566,540.83,567.52,543,567.38,546.18ZM566.12,545a3,3,0,0,0-3.17-3,3.2,3.2,0,0,0-3.31,3Z" transform="translate(0 -29.68)"/><path class="cls-10" d="M570.74,544.24a.88.88,0,1,1-.86-.94A.88.88,0,0,1,570.74,544.24Zm0,5.35a.88.88,0,1,1-.86-.94A.88.88,0,0,1,570.74,549.59Z" transform="translate(0 -29.68)"/><path class="cls-10" d="M583.15,545.68v-3.33h1.35v3.33h1.91v1.39H584.5v3.31h-1.35v-3.31h-6v-1.19l4.52-8.1H583l-4.39,7.9Z" transform="translate(0 -29.68)"/><path class="cls-10" d="M598.28,544.08c0,4.07-1.85,6.34-5.2,6.34s-5.2-2.27-5.2-6.34,1.85-6.34,5.2-6.34S598.28,540,598.28,544.08Zm-8.95,0c0,3.4,1.3,5.11,3.75,5.11s3.75-1.71,3.75-5.11-1.3-5.11-3.75-5.11S589.34,540.65,589.34,544.08Z" transform="translate(0 -29.68)"/><path class="cls-10" d="M605.84,545.68v-3.33h1.35v3.33h1.91v1.39h-1.91v3.31h-1.35v-3.31h-6v-1.19l4.52-8.1h1.42l-4.39,7.9Z" transform="translate(0 -29.68)"/></g></g></svg>