<svg id="Layer_1" data-name="Layer 1" xmlns="http://www.w3.org/2000/svg" xmlns:xlink="http://www.w3.org/1999/xlink" viewBox="0 0 2752.92 546.64"><defs><style>.cls-1{fill:url(#linear-gradient);}.cls-2{fill:url(#linear-gradient-2);}.cls-3{fill:url(#linear-gradient-3);}.cls-4{fill:url(#linear-gradient-4);}.cls-5{fill:url(#linear-gradient-5);}</style><linearGradient id="linear-gradient" x1="1389" y1="194.93" x2="1389" y2="702.63" gradientUnits="userSpaceOnUse"><stop offset="0" stop-color="#ee1f25"/><stop offset="1" stop-color="#951f25"/></linearGradient><linearGradient id="linear-gradient-2" x1="882.32" y1="0" x2="882.32" y2="546.15" xlink:href="#linear-gradient"/><linearGradient id="linear-gradient-3" x1="323.35" y1="31.05" x2="323.35" y2="512.14" xlink:href="#linear-gradient"/><linearGradient id="linear-gradient-4" x1="1870.6" y1="0.49" x2="1870.6" y2="546.64" xlink:href="#linear-gradient"/><linearGradient id="linear-gradient-5" x1="2429.56" y1="33.03" x2="2429.56" y2="514.11" xlink:href="#linear-gradient"/></defs><title>enone logo</title><path class="cls-1" d="M1651.48,448.78C1651.48,589,1534,702.63,1389,702.63S1126.53,589,1126.53,448.78,1244,194.93,1389,194.93,1651.48,308.58,1651.48,448.78ZM1390,314.21c-76.63,0-138.75,60.58-138.75,135.31s62.12,135.3,138.75,135.3,138.76-60.58,138.76-135.3S1466.62,314.21,1390,314.21Z" transform="translate(-15.5 -175.21)"/><polygon class="cls-2" points="670.36 21.69 670.36 546.15 969.07 279.48 969.07 512.63 1094.27 524.95 1094.27 0 792.11 271.75 792.11 33.03 670.36 21.69"/><polygon class="cls-3" points="478.62 31.05 369.74 139.91 522.98 139.99 522.98 214.42 296.24 214.42 189.9 321.38 522.98 321.38 522.98 405.67 105.48 405.67 0 512.14 646.7 512.14 646.7 31.05 478.62 31.05"/><polygon class="cls-4" points="2082.55 22.18 2082.55 546.64 1783.85 279.97 1783.85 513.12 1658.65 525.45 1658.65 0.49 1960.81 272.24 1960.81 33.52 2082.55 22.18"/><polygon class="cls-5" points="2274.3 33.03 2383.18 141.89 2229.93 141.96 2229.93 216.39 2456.67 216.39 2563.02 323.35 2229.93 323.35 2229.93 407.64 2647.43 407.64 2752.92 514.11 2106.21 514.11 2106.21 33.03 2274.3 33.03"/></svg>